<svg id="visual" viewBox="0 0 1980 1080" width="1980" height="1080" xmlns="http://www.w3.org/2000/svg" xmlns:xlink="http://www.w3.org/1999/xlink" version="1.1"><g><g transform="translate(499 778)"><path d="M38.5 -13.3C43 1.2 34.9 19 22 27.7C9.2 36.4 -8.3 36 -19.8 27.6C-31.3 19.1 -36.8 2.7 -32.5 -11.6C-28.2 -25.9 -14.1 -38 1.5 -38.5C17 -39 34.1 -27.8 38.5 -13.3Z" fill="none" stroke="#04284d" stroke-width="20"></path></g><g transform="translate(1279 993)"><path d="M35.2 -12C39.9 2.9 33.9 20.6 21.7 29.4C9.5 38.1 -8.9 37.8 -21.6 28.7C-34.4 19.7 -41.6 1.9 -37 -12.8C-32.5 -27.5 -16.3 -39.3 -0.5 -39.1C15.3 -38.9 30.6 -26.9 35.2 -12Z" fill="none" stroke="#04284d" stroke-width="20"></path></g><g transform="translate(52 376)"><path d="M37 -11.8C42.3 4.3 37 24 23.8 33.9C10.5 43.9 -10.8 44 -24.1 34.1C-37.5 24.2 -42.9 4.2 -37.6 -11.9C-32.2 -28 -16.1 -40.3 -0.1 -40.3C15.9 -40.3 31.7 -27.9 37 -11.8Z" fill="none" stroke="#04284d" stroke-width="20"></path></g><g transform="translate(1663 148)"><path d="M41 -12.4C46.4 3.3 39.4 23.9 25.7 33.5C11.9 43 -8.5 41.4 -21.8 31.4C-35.2 21.4 -41.4 2.9 -36.6 -12C-31.8 -26.9 -15.9 -38.2 1 -38.5C17.8 -38.9 35.6 -28.1 41 -12.4Z" stroke="#04284d" fill="none" stroke-width="20"></path></g><g transform="translate(159 794)"><path d="M33 -9.9C37.8 4.1 33.4 21.9 20.8 31.8C8.3 41.6 -12.3 43.5 -24.2 34.5C-36.1 25.6 -39.3 5.9 -33.8 -9C-28.3 -23.9 -14.1 -34 0 -34C14.1 -34 28.2 -23.9 33 -9.9Z" stroke="#04284d" fill="none" stroke-width="20"></path></g><g transform="translate(936 914)"><path d="M34.2 -11.2C38.6 2.3 32.3 19.1 19.5 28.9C6.6 38.7 -12.8 41.6 -24.9 33.1C-36.9 24.6 -41.5 4.8 -36.1 -10.1C-30.7 -25 -15.4 -35 -0.2 -34.9C14.9 -34.9 29.9 -24.7 34.2 -11.2Z" stroke="#04284d" fill="none" stroke-width="20"></path></g><g transform="translate(1139 502)"><path d="M29.2 -8.8C33.9 4.9 31 21.8 20.5 29.7C10.1 37.7 -7.9 36.7 -20.3 27.8C-32.6 18.8 -39.3 1.9 -35 -11.3C-30.6 -24.5 -15.3 -34.1 -1.5 -33.6C12.2 -33.2 24.5 -22.5 29.2 -8.8Z" stroke="#04284d" fill="none" stroke-width="20"></path></g><g transform="translate(1541 754)"><path d="M32.4 -11.3C36.4 1.8 30.2 17.5 18.5 26.2C6.7 35 -10.7 36.8 -22.3 28.8C-33.8 20.8 -39.7 3 -35 -11C-30.3 -25 -15.2 -35.3 -0.5 -35.1C14.2 -34.9 28.4 -24.4 32.4 -11.3Z" stroke="#04284d" fill="none" stroke-width="20"></path></g><g transform="translate(1164 862)"><path d="M33.1 -11.5C37.2 2 31 18 19.1 26.8C7.2 35.6 -10.4 37 -21.3 29.1C-32.2 21.3 -36.3 4 -31.7 -10.1C-27 -24.3 -13.5 -35.4 0.5 -35.6C14.5 -35.7 28.9 -24.9 33.1 -11.5Z" stroke="#04284d" fill="none" stroke-width="20"></path></g><g transform="translate(1244 150)"><path d="M31.9 -8.9C36.9 5.1 33.5 23.3 21.9 32.1C10.3 41 -9.4 40.6 -21.7 31.3C-33.9 22.1 -38.6 4 -33.8 -9.8C-28.9 -23.5 -14.5 -32.9 -0.5 -32.7C13.4 -32.6 26.9 -22.8 31.9 -8.9Z" stroke="#04284d" fill="none" stroke-width="20"></path></g><g transform="translate(1904 924)"><path d="M36.3 -12.8C40.3 0.8 32.4 17.3 19.3 27C6.1 36.6 -12.3 39.5 -23.5 31.6C-34.6 23.6 -38.5 4.9 -33.4 -10.1C-28.2 -25.2 -14.1 -36.6 1 -37C16.1 -37.3 32.2 -26.5 36.3 -12.8Z" stroke="#04284d" fill="none" stroke-width="20"></path></g><g transform="translate(421 452)"><path d="M36.1 -11.3C40.3 1.5 33 18.4 20.4 27.4C7.8 36.4 -10.1 37.5 -21.6 29.3C-33 21.1 -38 3.6 -33.3 -9.7C-28.6 -23 -14.3 -32 0.8 -32.3C15.9 -32.5 31.8 -24 36.1 -11.3Z" stroke="#04284d" fill="none" stroke-width="20"></path></g><g transform="translate(1353 581)"><path d="M36 -12.6C40.5 2.1 33.7 19.6 21.4 28.2C9.1 36.8 -8.7 36.6 -21.1 27.9C-33.5 19.1 -40.5 1.8 -36.1 -12.8C-31.7 -27.4 -15.9 -39.4 0 -39.3C15.8 -39.3 31.5 -27.3 36 -12.6Z" stroke="#04284d" fill="none" stroke-width="20"></path></g><g transform="translate(1955 453)"><path d="M33.9 -9.7C38.7 3.8 33.8 21.8 21.7 30.8C9.6 39.8 -9.7 39.9 -21.3 31C-32.8 22.2 -36.6 4.5 -31.8 -9C-27 -22.6 -13.5 -32.1 0.5 -32.2C14.5 -32.4 29.1 -23.3 33.9 -9.7Z" stroke="#04284d" fill="none" stroke-width="20"></path></g><g transform="translate(1495 186)"><path d="M32.1 -9.7C36.4 2.9 31.1 19.2 19.6 27.8C8 36.5 -9.8 37.3 -22 28.8C-34.2 20.3 -40.7 2.5 -36.1 -10.5C-31.4 -23.5 -15.7 -31.7 -0.9 -31.4C13.9 -31.1 27.8 -22.3 32.1 -9.7Z" stroke="#04284d" fill="none" stroke-width="20"></path></g><g transform="translate(1397 1045)"><path d="M32.5 -10.6C36.7 2.3 30.9 18.4 19.2 27C7.6 35.7 -10 36.8 -21.5 28.6C-33 20.5 -38.4 3.1 -33.8 -10.3C-29.2 -23.7 -14.6 -33.2 -0.2 -33.2C14.2 -33.1 28.4 -23.5 32.5 -10.6Z" stroke="#04284d" fill="none" stroke-width="20"></path></g><g transform="translate(589 211)"><path d="M33.9 -10C39 4.8 34.9 23.6 23.1 32.3C11.3 41 -8.3 39.6 -21 30.1C-33.8 20.6 -39.8 2.8 -35.1 -11.2C-30.5 -25.3 -15.3 -35.7 -0.4 -35.6C14.4 -35.5 28.8 -24.7 33.9 -10Z" stroke="#04284d" fill="none" stroke-width="20"></path></g><g transform="translate(1566 1055)"><path d="M34.5 -10.5C39.7 4.9 35.6 24.1 24.1 32.1C12.6 40.2 -6.1 37.2 -18.3 27.8C-30.5 18.3 -36.1 2.4 -32 -11.5C-27.8 -25.4 -13.9 -37.3 0.4 -37.4C14.6 -37.5 29.2 -25.9 34.5 -10.5Z" stroke="#04284d" fill="none" stroke-width="20"></path></g><g transform="translate(1041 73)"><path d="M34.9 -10.1C39.8 3.7 34.5 22 22.8 30.3C11 38.5 -7.2 36.8 -19.6 27.7C-31.9 18.6 -38.2 2 -34 -10.9C-29.7 -23.8 -14.9 -33.1 0.1 -33.1C15 -33.1 30 -23.9 34.9 -10.1Z" stroke="#04284d" fill="none" stroke-width="20"></path></g><g transform="translate(1469 405)"><path d="M32.4 -10C37.6 5.6 34.5 24.4 23.4 32.6C12.3 40.8 -6.9 38.3 -19.3 28.7C-31.7 19.2 -37.3 2.6 -33 -11.8C-28.7 -26.2 -14.3 -38.4 -0.4 -38.3C13.6 -38.2 27.1 -25.7 32.4 -10Z" stroke="#04284d" fill="none" stroke-width="20"></path></g><g transform="translate(397 277)"><path d="M36.2 -12.3C41.3 3.8 35.8 22.7 23 32.1C10.2 41.5 -9.8 41.3 -21.7 32.2C-33.6 23 -37.4 4.8 -32.4 -11.1C-27.4 -27.1 -13.7 -40.8 0.9 -41.1C15.6 -41.4 31.2 -28.3 36.2 -12.3Z" stroke="#04284d" fill="none" stroke-width="20"></path></g><g transform="translate(329 573)"><path d="M32.8 -12.2C37.1 2.6 31.5 19.1 19.5 28.1C7.5 37.2 -10.9 38.7 -21.7 30.6C-32.6 22.6 -35.9 4.9 -31 -10.6C-26.1 -26.1 -13.1 -39.6 0.6 -39.7C14.3 -39.9 28.5 -26.9 32.8 -12.2Z" stroke="#04284d" fill="none" stroke-width="20"></path></g><g transform="translate(485 83)"><path d="M37.2 -10.2C42.3 3.6 36.4 22.9 23.4 32.5C10.3 42.1 -10.1 42 -23.5 32.3C-37 22.5 -43.5 3.1 -38.4 -10.7C-33.4 -24.5 -16.7 -32.7 -0.3 -32.5C16 -32.4 32.1 -24 37.2 -10.2Z" stroke="#04284d" fill="none" stroke-width="20"></path></g><g transform="translate(1839 548)"><path d="M36.1 -12.3C40.4 1.5 33.1 18.5 21 26.9C8.8 35.3 -8.3 35.1 -20.7 26.5C-33.2 17.9 -41.1 1 -36.8 -12.7C-32.6 -26.3 -16.3 -36.7 -0.2 -36.7C15.9 -36.6 31.8 -26.1 36.1 -12.3Z" stroke="#04284d" fill="none" stroke-width="20"></path></g><g transform="translate(1368 811)"><path d="M31 -9.8C35.9 5.2 32.8 23 21.3 31.9C9.9 40.8 -9.9 40.8 -22.2 31.6C-34.6 22.4 -39.5 4 -34.5 -10.9C-29.6 -25.8 -14.8 -37.2 -0.9 -36.9C13 -36.7 26 -24.7 31 -9.8Z" stroke="#04284d" fill="none" stroke-width="20"></path></g><g transform="translate(1633 515)"><path d="M32.2 -9.4C36.7 3.5 31.9 20.4 20.8 28.5C9.7 36.5 -7.8 35.6 -19.7 27C-31.7 18.3 -38.1 1.9 -33.9 -10.4C-29.7 -22.8 -14.8 -31.2 -0.5 -31.1C13.8 -30.9 27.7 -22.2 32.2 -9.4Z" stroke="#04284d" fill="none" stroke-width="20"></path></g><g transform="translate(715 959)"><path d="M31 -11.6C34.8 1.7 28.9 16.7 17.9 24.8C6.8 32.9 -9.3 34 -20.9 26.2C-32.4 18.4 -39.3 1.7 -35 -12.2C-30.8 -26.1 -15.4 -37.2 -0.9 -36.9C13.6 -36.6 27.2 -24.9 31 -11.6Z" stroke="#04284d" fill="none" stroke-width="20"></path></g><g transform="translate(182 355)"><path d="M39.6 -11.4C44.7 3 37.8 22.8 24.4 32.2C11 41.6 -8.9 40.6 -21.5 31C-34.2 21.5 -39.6 3.4 -34.8 -10.5C-30 -24.5 -15 -34.3 1.1 -34.6C17.2 -35 34.4 -25.9 39.6 -11.4Z" stroke="#04284d" fill="none" stroke-width="20"></path></g><g transform="translate(1909 21)"><path d="M36.9 -11.6C41.4 2 34.4 19.8 21.4 29.3C8.3 38.7 -10.7 39.8 -22.5 31.1C-34.4 22.5 -39.2 4.1 -34.2 -10.1C-29.3 -24.3 -14.6 -34.3 0.8 -34.5C16.2 -34.8 32.3 -25.3 36.9 -11.6Z" stroke="#04284d" fill="none" stroke-width="20"></path></g><g transform="translate(1656 708)"><path d="M34.2 -12.4C38.7 2.8 32.8 20 20.1 29.7C7.3 39.5 -12.3 41.8 -24.6 33.1C-36.9 24.3 -41.7 4.6 -36.3 -11.7C-31 -28 -15.5 -41 -0.3 -40.9C14.8 -40.8 29.7 -27.6 34.2 -12.4Z" stroke="#04284d" fill="none" stroke-width="20"></path></g><g transform="translate(58 205)"><path d="M35.7 -11.3C40.4 3 34.4 21 21.5 30.6C8.6 40.2 -11.1 41.3 -22.7 32.6C-34.3 23.9 -37.8 5.2 -32.6 -9.6C-27.5 -24.5 -13.7 -35.6 0.9 -35.9C15.5 -36.2 31 -25.6 35.7 -11.3Z" stroke="#04284d" fill="none" stroke-width="20"></path></g><g transform="translate(1928 1051)"><path d="M36.7 -11.9C41.1 1.4 33.5 18.6 20.8 27.6C8 36.6 -9.9 37.4 -23.1 28.6C-36.2 19.8 -44.7 1.3 -40 -12.5C-35.4 -26.3 -17.7 -35.3 -0.7 -35C16.2 -34.8 32.4 -25.3 36.7 -11.9Z" stroke="#04284d" fill="none" stroke-width="20"></path></g><g transform="translate(684 811)"><path d="M31.9 -10.7C36.2 3 31.1 19.4 19.2 28.4C7.4 37.5 -11.2 39.3 -21.8 31.3C-32.3 23.3 -34.8 5.6 -29.8 -8.9C-24.8 -23.5 -12.4 -34.8 0.7 -35.1C13.8 -35.3 27.6 -24.4 31.9 -10.7Z" stroke="#04284d" fill="none" stroke-width="20"></path></g><g transform="translate(144 1017)"><path d="M36.2 -11.4C41.8 5.4 37.6 25.7 25.1 34.9C12.5 44.1 -8.4 42.2 -21.7 32.1C-35 21.9 -40.6 3.4 -35.7 -12.4C-30.8 -28.3 -15.4 -41.6 0 -41.5C15.3 -41.5 30.7 -28.2 36.2 -11.4Z" stroke="#04284d" fill="none" stroke-width="20"></path></g><g transform="translate(779 680)"><path d="M37.2 -11.4C41.7 1.8 34.4 19.5 21.3 28.9C8.3 38.2 -10.4 39.2 -21.7 30.8C-33 22.4 -36.8 4.6 -32 -9.2C-27.1 -22.9 -13.6 -32.6 1.4 -33C16.3 -33.5 32.6 -24.7 37.2 -11.4Z" stroke="#04284d" fill="none" stroke-width="20"></path></g><g transform="translate(1794 753)"><path d="M34.1 -10.4C38.9 3.6 33.8 21.5 22 30.1C10.2 38.6 -8.3 37.7 -20.3 28.8C-32.3 19.8 -37.8 2.9 -33.4 -10.7C-28.9 -24.3 -14.5 -34.5 0.1 -34.5C14.6 -34.5 29.3 -24.4 34.1 -10.4Z" stroke="#04284d" fill="none" stroke-width="20"></path></g><g transform="translate(1346 295)"><path d="M29.1 -10C33.7 4.6 30.6 21.2 19.7 29.8C8.8 38.3 -9.9 38.8 -22.3 30C-34.7 21.1 -40.9 2.9 -36.1 -12C-31.4 -26.9 -15.7 -38.5 -1.7 -37.9C12.3 -37.3 24.5 -24.7 29.1 -10Z" stroke="#04284d" fill="none" stroke-width="20"></path></g><g transform="translate(1801 987)"><path d="M33.1 -10.9C37.2 1.7 30.8 17.6 19.5 25.5C8.2 33.4 -8 33.4 -20.2 25.2C-32.3 17 -40.4 0.6 -36.4 -12C-32.4 -24.6 -16.2 -33.3 -0.8 -33.1C14.5 -32.8 29.1 -23.5 33.1 -10.9Z" stroke="#04284d" fill="none" stroke-width="20"></path></g><g transform="translate(890 253)"><path d="M37.7 -12.7C42 0.8 33.7 17.9 20.3 27.5C7 37 -11.5 39.1 -23 30.9C-34.4 22.7 -38.9 4.3 -34 -10.2C-29 -24.7 -14.5 -35.3 1.1 -35.7C16.8 -36.1 33.5 -26.2 37.7 -12.7Z" stroke="#04284d" fill="none" stroke-width="20"></path></g><g transform="translate(1115 726)"><path d="M40.3 -12.8C45.3 2.2 37.6 21.7 23.2 32.2C8.8 42.7 -12.3 44.3 -25.6 34.8C-39 25.2 -44.6 4.4 -39 -11.4C-33.4 -27.3 -16.7 -38.3 0.5 -38.4C17.7 -38.6 35.3 -27.9 40.3 -12.8Z" stroke="#04284d" fill="none" stroke-width="20"></path></g><g transform="translate(6 882)"><path d="M34.6 -11.7C38.9 2.1 32.4 18.9 19.7 28.3C7.1 37.8 -11.7 39.9 -22.5 31.8C-33.4 23.7 -36.2 5.5 -31.1 -9.3C-26.1 -24.1 -13 -35.5 1 -35.8C15.1 -36.2 30.2 -25.5 34.6 -11.7Z" stroke="#04284d" fill="none" stroke-width="20"></path></g><g transform="translate(415 1072)"><path d="M32 -11C36.8 4.4 32.8 22 21.9 29.8C11 37.6 -6.7 35.6 -19.6 26.4C-32.5 17.1 -40.6 0.7 -36.5 -13.7C-32.5 -28.1 -16.2 -40.4 -1.3 -40C13.6 -39.6 27.2 -26.4 32 -11Z" stroke="#04284d" fill="none" stroke-width="20"></path></g><g transform="translate(1668 989)"><path d="M38.9 -11.7C43.9 2.7 36.9 21.9 23.7 31.1C10.5 40.3 -8.8 39.5 -21.2 30.2C-33.6 20.9 -39.1 3.2 -34.4 -10.8C-29.7 -24.8 -14.9 -35 1.1 -35.4C17 -35.7 34 -26.1 38.9 -11.7Z" stroke="#04284d" fill="none" stroke-width="20"></path></g><g transform="translate(1571 7)"><path d="M29.4 -10.5C33.5 2.9 28.9 18.2 17.7 27.1C6.4 35.9 -11.5 38.2 -22.3 30.4C-33 22.6 -36.7 4.8 -31.7 -9.9C-26.8 -24.5 -13.4 -35.9 -0.4 -35.8C12.7 -35.6 25.4 -24 29.4 -10.5Z" stroke="#04284d" fill="none" stroke-width="20"></path></g><g transform="translate(1766 432)"><path d="M35.2 -13.2C39.5 2 32.9 19.1 20.7 27.8C8.5 36.5 -9.3 36.8 -21.5 28.2C-33.8 19.6 -40.6 2.1 -36.1 -13.2C-31.6 -28.6 -15.8 -41.8 -0.2 -41.7C15.4 -41.7 30.8 -28.3 35.2 -13.2Z" stroke="#04284d" fill="none" stroke-width="20"></path></g><g transform="translate(317 904)"><path d="M33 -12C37.4 3.1 32.1 20 20.8 28.2C9.4 36.3 -8 35.7 -20.9 26.8C-33.8 17.9 -42.2 0.7 -37.9 -14C-33.7 -28.7 -16.8 -41 -1.3 -40.6C14.2 -40.2 28.5 -27 33 -12Z" stroke="#04284d" fill="none" stroke-width="20"></path></g><g transform="translate(596 1037)"><path d="M34.3 -12.5C38.7 2.4 32.6 19.4 20.4 28.2C8.3 37 -9.8 37.7 -21.6 29.2C-33.3 20.8 -38.8 3.2 -34.2 -12C-29.5 -27.2 -14.8 -40 0.1 -40.1C15 -40.1 29.9 -27.3 34.3 -12.5Z" stroke="#04284d" fill="none" stroke-width="20"></path></g><g transform="translate(42 594)"><path d="M34.3 -11.8C38.7 2.1 32.3 18.9 20.3 27.5C8.3 36.1 -9.3 36.6 -20.3 28.5C-31.3 20.4 -35.7 3.7 -31.2 -10.5C-26.7 -24.7 -13.3 -36.4 0.8 -36.6C15 -36.9 30 -25.8 34.3 -11.8Z" stroke="#04284d" fill="none" stroke-width="20"></path></g><g transform="translate(1916 155)"><path d="M35.2 -12.1C39.9 3.1 34.2 21.1 22 29.9C9.8 38.7 -8.9 38.3 -20.6 29.5C-32.4 20.7 -37.2 3.6 -32.6 -11.5C-28 -26.5 -14 -39.4 0.6 -39.6C15.2 -39.8 30.5 -27.4 35.2 -12.1Z" stroke="#04284d" fill="none" stroke-width="20"></path></g><g transform="translate(1634 377)"><path d="M38.1 -12.8C42.8 1.8 35.2 20 22.1 29.2C9 38.4 -9.6 38.7 -21.6 30C-33.6 21.2 -38.8 3.5 -34.1 -11.3C-29.4 -26 -14.7 -37.7 1 -38C16.8 -38.4 33.5 -27.4 38.1 -12.8Z" stroke="#04284d" fill="none" stroke-width="20"></path></g><g transform="translate(663 379)"><path d="M31.9 -12C36.2 2.8 31 19.1 19 28.3C7.1 37.4 -11.5 39.4 -22.9 31.2C-34.4 22.9 -38.7 4.5 -33.7 -11.4C-28.7 -27.3 -14.3 -40.6 -0.3 -40.5C13.8 -40.4 27.6 -26.9 31.9 -12Z" stroke="#04284d" fill="none" stroke-width="20"></path></g><g transform="translate(280 687)"><path d="M31.8 -10.2C36 2.8 30.8 18.9 20 26.5C9.2 34.1 -7.1 33.2 -18 25.2C-28.9 17.1 -34.4 2.1 -30.5 -10.4C-26.6 -22.8 -13.3 -32.6 0.2 -32.7C13.8 -32.8 27.5 -23.1 31.8 -10.2Z" stroke="#04284d" fill="none" stroke-width="20"></path></g><g transform="translate(884 732)"><path d="M37.2 -10.9C42.5 4.2 37.1 23.9 24.7 32.5C12.4 41.1 -6.9 38.6 -20.6 28.6C-34.3 18.6 -42.4 1.1 -38 -12.7C-33.7 -26.5 -16.8 -36.6 -0.4 -36.4C16 -36.3 31.9 -25.9 37.2 -10.9Z" stroke="#04284d" fill="none" stroke-width="20"></path></g><g transform="translate(260 108)"><path d="M32.9 -11.2C37.2 2.7 31.7 19.3 19.4 28.7C7.2 38 -11.7 40.1 -23.4 31.7C-35.1 23.4 -39.5 4.5 -34.4 -10.4C-29.3 -25.4 -14.7 -36.4 -0.2 -36.3C14.3 -36.3 28.5 -25.1 32.9 -11.2Z" stroke="#04284d" fill="none" stroke-width="20"></path></g><g transform="translate(858 1067)"><path d="M38.7 -12.1C44 3.7 37.8 23.6 25 32.5C12.1 41.4 -7.4 39.2 -19.4 29.7C-31.5 20.3 -36 3.5 -31.6 -11.1C-27.1 -25.7 -13.5 -38.2 1.6 -38.7C16.7 -39.2 33.4 -27.8 38.7 -12.1Z" stroke="#04284d" fill="none" stroke-width="20"></path></g><g transform="translate(990 453)"><path d="M35.9 -10.5C40.8 3.1 34.8 21.4 22.1 30.7C9.3 40 -10.2 40.4 -21.2 31.8C-32.2 23.1 -34.8 5.5 -29.9 -8.3C-25 -22 -12.5 -31.9 1.5 -32.4C15.6 -32.9 31.1 -24 35.9 -10.5Z" stroke="#04284d" fill="none" stroke-width="20"></path></g><g transform="translate(1772 107)"><path d="M35.6 -11.7C40.5 3.4 34.8 21.7 23 29.8C11.2 38 -6.6 35.9 -18.9 26.8C-31.1 17.7 -37.7 1.6 -33.6 -12.4C-29.6 -26.4 -14.8 -38.4 0.3 -38.5C15.4 -38.6 30.8 -26.8 35.6 -11.7Z" stroke="#04284d" fill="none" stroke-width="20"></path></g><g transform="translate(828 364)"><path d="M30.2 -10C34.1 2.4 29 17.6 18.1 25.6C7.3 33.6 -9.2 34.5 -20.2 26.8C-31.2 19 -36.7 2.7 -32.4 -10.2C-28.1 -23.1 -14.1 -32.5 -0.5 -32.4C13.1 -32.2 26.2 -22.5 30.2 -10Z" stroke="#04284d" fill="none" stroke-width="20"></path></g><g transform="translate(1518 945)"><path d="M35.2 -12C40.1 3.6 34.7 22 22.6 30.8C10.4 39.5 -8.5 38.7 -20.5 29.6C-32.5 20.6 -37.5 3.4 -33 -11.8C-28.4 -27 -14.2 -40.2 0.5 -40.3C15.2 -40.5 30.3 -27.6 35.2 -12Z" stroke="#04284d" fill="none" stroke-width="20"></path></g><g transform="translate(1737 856)"><path d="M32.9 -10.2C37.9 4.4 33.7 22.5 21.2 32.3C8.7 42.2 -12.1 43.7 -24.2 34.6C-36.3 25.5 -39.8 5.7 -34.3 -9.7C-28.8 -25.1 -14.4 -36.1 -0.2 -36.1C14 -36 28 -24.8 32.9 -10.2Z" stroke="#04284d" fill="none" stroke-width="20"></path></g><g transform="translate(1228 413)"><path d="M34.7 -11.5C39.3 2.9 33.4 20.4 21.7 28.7C9.9 36.9 -7.7 35.9 -19.9 27.2C-32 18.4 -38.5 1.9 -34.3 -12C-30.1 -25.8 -15 -37 0 -37C15 -37 30.1 -25.8 34.7 -11.5Z" stroke="#04284d" fill="none" stroke-width="20"></path></g><g transform="translate(169 7)"><path d="M32.8 -10.7C37.8 4.8 33.9 23.1 22.2 32C10.4 40.9 -9.3 40.3 -22.8 30.7C-36.4 21 -43.9 2.1 -39.1 -13.1C-34.3 -28.4 -17.1 -40 -1.6 -39.5C13.9 -39 27.8 -26.3 32.8 -10.7Z" stroke="#04284d" fill="none" stroke-width="20"></path></g><g transform="translate(968 638)"><path d="M40.4 -13.6C44.7 0.1 35.2 17.8 21.7 26.9C8.2 36 -9.4 36.5 -20.8 28.3C-32.3 20 -37.8 3 -33.3 -11C-28.8 -24.9 -14.4 -35.8 1.8 -36.4C18.1 -37 36.1 -27.3 40.4 -13.6Z" stroke="#04284d" fill="none" stroke-width="20"></path></g><g transform="translate(855 502)"><path d="M37.5 -12.7C42.2 2.4 35.3 20.7 22.1 30.2C8.9 39.8 -10.5 40.5 -22.6 31.6C-34.6 22.7 -39.3 4.2 -34.3 -11.2C-29.3 -26.6 -14.7 -38.9 0.9 -39.2C16.4 -39.5 32.8 -27.7 37.5 -12.7Z" stroke="#04284d" fill="none" stroke-width="20"></path></g><g transform="translate(536 595)"><path d="M37.9 -10.9C43.1 3.9 37.3 23.6 24.4 32.8C11.6 42 -8.4 40.6 -21.2 30.9C-33.9 21.2 -39.4 3.3 -34.6 -10.7C-29.9 -24.8 -15 -34.9 0.7 -35.1C16.3 -35.4 32.6 -25.6 37.9 -10.9Z" stroke="#04284d" fill="none" stroke-width="20"></path></g><g transform="translate(1232 733)"><path d="M33.2 -10.1C38.2 4.5 34 22.8 22 31.9C10 41 -9.8 40.9 -21.7 31.9C-33.5 22.8 -37.3 4.7 -32.4 -9.9C-27.4 -24.6 -13.7 -35.7 0.2 -35.8C14.1 -35.9 28.2 -24.8 33.2 -10.1Z" stroke="#04284d" fill="none" stroke-width="20"></path></g><g transform="translate(1132 1015)"><path d="M39.2 -11C44.4 3.4 38 23.4 24.2 33.5C10.3 43.7 -10.9 43.9 -23.7 34.2C-36.5 24.6 -40.8 4.9 -35.5 -9.6C-30.1 -24.2 -15.1 -33.6 0.9 -33.9C17 -34.3 33.9 -25.4 39.2 -11Z" stroke="#04284d" fill="none" stroke-width="20"></path></g><g transform="translate(461 933)"><path d="M38.6 -13.2C43.7 3.1 37.2 22.6 23.9 32C10.7 41.4 -9.2 40.7 -22.3 31.1C-35.4 21.5 -41.7 2.9 -36.8 -13C-32 -29 -16 -42.3 0.4 -42.5C16.8 -42.6 33.5 -29.5 38.6 -13.2Z" stroke="#04284d" fill="none" stroke-width="20"></path></g><g transform="translate(1414 11)"><path d="M34.4 -10.7C39.3 3.9 34.4 22.2 22.4 31C10.4 39.7 -8.7 39 -21.2 29.8C-33.7 20.6 -39.6 2.9 -35 -11.3C-30.4 -25.5 -15.2 -36.2 -0.2 -36.2C14.7 -36.1 29.5 -25.2 34.4 -10.7Z" stroke="#04284d" fill="none" stroke-width="20"></path></g><g transform="translate(1357 116)"><path d="M33.1 -12.5C37 1.3 30.3 16.9 19.2 24.4C8.2 32 -7.2 31.6 -18.6 23.7C-30 15.9 -37.5 0.6 -33.7 -12.9C-29.9 -26.5 -15 -38.4 -0.2 -38.4C14.6 -38.3 29.2 -26.3 33.1 -12.5Z" stroke="#04284d" fill="none" stroke-width="20"></path></g><g transform="translate(608 61)"><path d="M34.9 -12.3C38.9 1.3 31.8 17.5 20 25.6C8.2 33.7 -8.1 33.7 -20.3 25.4C-32.6 17.1 -40.8 0.6 -36.7 -13C-32.6 -26.6 -16.3 -37.3 -0.5 -37.1C15.4 -37 30.8 -26 34.9 -12.3Z" stroke="#04284d" fill="none" stroke-width="20"></path></g><g transform="translate(367 162)"><path d="M34.4 -11.6C38.8 2.2 32.4 19 20.1 28C7.7 37.1 -10.5 38.4 -22.8 29.8C-35 21.3 -41.2 3 -36.4 -11.4C-31.6 -25.8 -15.8 -36.2 -0.4 -36.1C15.1 -36 30.1 -25.3 34.4 -11.6Z" stroke="#04284d" fill="none" stroke-width="20"></path></g><g transform="translate(1470 627)"><path d="M37 -12.3C42 3.4 36 22.4 24.1 30.4C12.2 38.4 -5.7 35.5 -17.8 26.3C-29.9 17.1 -36.1 1.7 -32.2 -12.6C-28.3 -26.8 -14.1 -39.8 0.9 -40.1C16 -40.4 32 -28 37 -12.3Z" stroke="#04284d" fill="none" stroke-width="20"></path></g><g transform="translate(292 1052)"><path d="M34.9 -10.2C39.7 3.4 34.3 21.5 22.9 29.3C11.5 37.1 -5.9 34.5 -16.7 25.9C-27.6 17.4 -32 2.8 -28.1 -9.6C-24.3 -22 -12.1 -32.1 1.5 -32.6C15.1 -33 30.1 -23.9 34.9 -10.2Z" stroke="#04284d" fill="none" stroke-width="20"></path></g><g transform="translate(745 35)"><path d="M37.7 -11.1C42.7 3.3 36.5 22.5 24.3 30.8C12.1 39 -6.1 36.2 -19 26.7C-31.9 17.2 -39.5 0.9 -35.4 -12.1C-31.4 -25.1 -15.7 -35 0.3 -35.1C16.3 -35.2 32.6 -25.5 37.7 -11.1Z" stroke="#04284d" fill="none" stroke-width="20"></path></g><g transform="translate(1111 206)"><path d="M30.6 -9.8C34.7 2.8 29.8 18.5 18.2 27.5C6.7 36.5 -11.6 38.7 -23.3 30.6C-35.1 22.4 -40.3 3.8 -35.4 -10C-30.4 -23.7 -15.2 -32.5 -1 -32.2C13.2 -31.9 26.4 -22.4 30.6 -9.8Z" stroke="#04284d" fill="none" stroke-width="20"></path></g><g transform="translate(1147 320)"><path d="M37.6 -11.3C42.3 2.1 35.2 20.3 21.9 30C8.6 39.6 -10.8 40.6 -22.1 32C-33.4 23.5 -36.5 5.3 -31.5 -8.6C-26.4 -22.5 -13.2 -32.2 1.6 -32.7C16.5 -33.2 33 -24.7 37.6 -11.3Z" stroke="#04284d" fill="none" stroke-width="20"></path></g><g transform="translate(378 797)"><path d="M38.9 -12.5C43.2 0.7 34.6 18.3 21 27.9C7.4 37.5 -11.2 39.3 -24.2 30.5C-37.2 21.7 -44.6 2.4 -39.6 -11.7C-34.6 -25.8 -17.3 -34.7 0 -34.7C17.3 -34.7 34.5 -25.8 38.9 -12.5Z" stroke="#04284d" fill="none" stroke-width="20"></path></g><g transform="translate(1760 280)"><path d="M34.8 -12.5C39 1.6 32.1 18.1 19.7 27.1C7.3 36.2 -10.6 37.7 -22.6 29.4C-34.7 21 -40.9 2.9 -36.1 -11.9C-31.4 -26.8 -15.7 -38.2 -0.2 -38.2C15.3 -38.1 30.6 -26.5 34.8 -12.5Z" stroke="#04284d" fill="none" stroke-width="20"></path></g><g transform="translate(126 483)"><path d="M31.5 -10.7C36 3.6 31.5 20.4 20.2 29C8.8 37.5 -9.4 37.7 -22.1 28.9C-34.9 20 -42.2 2 -37.6 -12.5C-33 -27 -16.5 -37.9 -1.5 -37.4C13.5 -36.9 27 -25.1 31.5 -10.7Z" stroke="#04284d" fill="none" stroke-width="20"></path></g><g transform="translate(866 43)"><path d="M39.6 -12.8C44.5 2.2 37 21.4 23.8 30.4C10.7 39.4 -8.1 38.2 -20.3 29.1C-32.4 20 -37.9 3 -33.4 -11.5C-28.9 -25.9 -14.5 -37.6 1.4 -38.1C17.4 -38.6 34.7 -27.7 39.6 -12.8Z" stroke="#04284d" fill="none" stroke-width="20"></path></g><g transform="translate(629 524)"><path d="M33.3 -10.7C38.3 4.6 34.2 23 22.4 31.8C10.7 40.6 -8.8 39.7 -21.7 30.3C-34.5 20.8 -40.8 2.8 -36.1 -12.1C-31.3 -27 -15.7 -38.8 -0.8 -38.5C14.1 -38.3 28.3 -26 33.3 -10.7Z" stroke="#04284d" fill="none" stroke-width="20"></path></g><g transform="translate(539 369)"><path d="M35.5 -13C39.3 0.3 31.2 15.9 18.4 25.2C5.6 34.5 -11.9 37.4 -23.5 29.6C-35.1 21.8 -40.9 3.3 -36 -11.3C-31.1 -26 -15.6 -36.9 0.1 -36.9C15.8 -37 31.7 -26.2 35.5 -13Z" stroke="#04284d" fill="none" stroke-width="20"></path></g><g transform="translate(16 750)"><path d="M32.8 -10.2C38.2 6 35.4 25.4 23.9 34.1C12.3 42.7 -7.9 40.7 -22.3 30.3C-36.8 19.9 -45.4 1.2 -40.8 -14C-36.1 -29.2 -18 -40.8 -2.2 -40.1C13.7 -39.4 27.4 -26.3 32.8 -10.2Z" stroke="#04284d" fill="none" stroke-width="20"></path></g><g transform="translate(192 220)"><path d="M32.1 -10.5C36.9 4.5 33 22.2 21.9 30.3C10.8 38.4 -7.5 36.9 -19.6 27.9C-31.7 18.9 -37.6 2.4 -33.3 -11.8C-29 -26.1 -14.5 -38 -0.4 -37.8C13.6 -37.7 27.3 -25.5 32.1 -10.5Z" stroke="#04284d" fill="none" stroke-width="20"></path></g><g transform="translate(1970 785)"><path d="M37.9 -13.7C42.6 1.9 35.2 20.1 22.5 28.7C9.9 37.3 -7.9 36.3 -19.8 27.6C-31.7 18.9 -37.8 2.3 -33.5 -12.8C-29.2 -28 -14.6 -41.8 1 -42.1C16.7 -42.5 33.3 -29.3 37.9 -13.7Z" stroke="#04284d" fill="none" stroke-width="20"></path></g></g></svg>