<svg id="visual" viewBox="0 0 1980 1080" width="1980" height="1080"
    xmlns="http://www.w3.org/2000/svg" xmlns:xlink="http://www.w3.org/1999/xlink" version="1.1">
    <g fill="#001122">
        
        <circle r="29" cx="29" cy="886"></circle>
        <circle r="7" cx="562" cy="948"></circle>
        <circle r="7" cx="1827" cy="710"></circle>
        <circle r="25" cx="971" cy="941"></circle>
        <circle r="25" cx="1449" cy="586"></circle>
        <circle r="6" cx="1155" cy="802"></circle>
        <circle r="42" cx="1052" cy="536"></circle>
        <circle r="14" cx="1518" cy="707"></circle>
        <circle r="37" cx="1527" cy="805"></circle>
        <circle r="41" cx="777" cy="984"></circle>
        <circle r="46" cx="830" cy="781"></circle>
        <circle r="34" cx="443" cy="713"></circle>
        <circle r="43" cx="403" cy="607"></circle>
        <circle r="6" cx="1588" cy="955"></circle>
        <circle r="35" cx="1530" cy="83"></circle>
        <circle r="26" cx="1674" cy="83"></circle>
        <circle r="39" cx="1526" cy="192"></circle>
        <circle r="43" cx="1230" cy="193"></circle>
        <circle r="27" cx="1943" cy="591"></circle>
        <circle r="28" cx="927" cy="1061"></circle>
        <circle r="7" cx="1939" cy="238"></circle>
        <circle r="8" cx="536" cy="343"></circle>
        <circle r="31" cx="23" cy="732"></circle>
        <circle r="38" cx="132" cy="309"></circle>
        <circle r="29" cx="952" cy="599"></circle>
        <circle r="18" cx="1313" cy="75"></circle>
        <circle r="6" cx="1797" cy="532"></circle>
        <circle r="30" cx="1173" cy="653"></circle>
        <circle r="7" cx="1762" cy="191"></circle>
        <circle r="23" cx="1660" cy="325"></circle>
        <circle r="9" cx="1426" cy="1023"></circle>
        <circle r="31" cx="1008" cy="169"></circle>
        <circle r="14" cx="1718" cy="763"></circle>
        <circle r="26" cx="318" cy="653"></circle>
        <circle r="25" cx="399" cy="411"></circle>
        <circle r="19" cx="1648" cy="505"></circle>
        <circle r="20" cx="879" cy="191"></circle>
        <circle r="34" cx="684" cy="240"></circle>
        <circle r="42" cx="879" cy="885"></circle>
        <circle r="7" cx="884" cy="343"></circle>
        <circle r="24" cx="1354" cy="914"></circle>
        <circle r="42" cx="7" cy="603"></circle>
        <circle r="29" cx="284" cy="1073"></circle>
        <circle r="45" cx="60" cy="194"></circle>
        <circle r="25" cx="1074" cy="76"></circle>
        <circle r="12" cx="867" cy="471"></circle>
        <circle r="31" cx="389" cy="818"></circle>
        <circle r="24" cx="54" cy="444"></circle>
        <circle r="47" cx="123" cy="607"></circle>
        <circle r="24" cx="287" cy="340"></circle>
        <circle r="23" cx="224" cy="54"></circle>
        <circle r="21" cx="571" cy="683"></circle>
        <circle r="39" cx="618" cy="485"></circle>
        <circle r="10" cx="1687" cy="939"></circle>
        <circle r="10" cx="1027" cy="1039"></circle>
        <circle r="11" cx="1159" cy="1074"></circle>
        <circle r="7" cx="216" cy="770"></circle>
        <circle r="38" cx="736" cy="639"></circle>
        <circle r="29" cx="347" cy="81"></circle>
        <circle r="45" cx="1952" cy="1012"></circle>
        <circle r="21" cx="307" cy="937"></circle>
        <circle r="43" cx="1219" cy="475"></circle>
        <circle r="19" cx="904" cy="86"></circle>
        <circle r="24" cx="1926" cy="867"></circle>
        <circle r="30" cx="603" cy="1049"></circle>
        <circle r="14" cx="1935" cy="29"></circle>
        <circle r="42" cx="7" cy="1012"></circle>
        <circle r="26" cx="1323" cy="802"></circle>
        <circle r="8" cx="87" cy="64"></circle>
        <circle r="6" cx="281" cy="558"></circle>
        <circle r="33" cx="1408" cy="129"></circle>
        <circle r="20" cx="1936" cy="414"></circle>
        <circle r="23" cx="506" cy="26"></circle>
        <circle r="38" cx="502" cy="173"></circle>
        <circle r="33" cx="650" cy="333"></circle>
        <circle r="16" cx="1318" cy="283"></circle>
        <circle r="39" cx="1101" cy="279"></circle>
        <circle r="24" cx="1404" cy="330"></circle>
        <circle r="6" cx="665" cy="118"></circle>
        <circle r="38" cx="523" cy="777"></circle>
        <circle r="35" cx="1716" cy="646"></circle>
        <circle r="8" cx="962" cy="786"></circle>
        <circle r="28" cx="1599" cy="1071"></circle>
        <circle r="13" cx="1825" cy="327"></circle>
        <circle r="11" cx="681" cy="881"></circle>
        <circle r="13" cx="1544" cy="339"></circle>
        <circle r="43" cx="721" cy="40"></circle>
        <circle r="39" cx="1369" cy="502"></circle>
        <circle r="34" cx="324" cy="180"></circle>
        <circle r="29" cx="785" cy="124"></circle>
        <circle r="33" cx="1835" cy="84"></circle>
        <circle r="37" cx="1718" cy="1061"></circle>
        <circle r="34" cx="912" cy="687"></circle>
        <circle r="10" cx="1458" cy="462"></circle>
        <circle r="27" cx="1931" cy="718"></circle>
        <circle r="43" cx="1317" cy="686"></circle>
        <circle r="26" cx="413" cy="1054"></circle>
        <circle r="43" cx="505" cy="507"></circle>
        <circle r="41" cx="1571" cy="563"></circle>
        <circle r="25" cx="183" cy="1033"></circle>
        <circle r="18" cx="1830" cy="1076"></circle>
        <circle r="26" cx="1117" cy="169"></circle>
        <circle r="8" cx="776" cy="506"></circle>
        <circle r="29" cx="148" cy="504"></circle>
        <circle r="31" cx="980" cy="430"></circle>
        <circle r="8" cx="777" cy="354"></circle>
        <circle r="33" cx="652" cy="758"></circle>
        <circle r="11" cx="1143" cy="944"></circle>
        <circle r="42" cx="620" cy="29"></circle>
        <circle r="8" cx="1799" cy="879"></circle>
        <circle r="34" cx="1300" cy="410"></circle>
        <circle r="6" cx="1796" cy="424"></circle>
        <circle r="25" cx="513" cy="604"></circle>
        <circle r="25" cx="151" cy="146"></circle>
        <circle r="17" cx="411" cy="281"></circle>
        <circle r="16" cx="972" cy="300"></circle>
        <circle r="47" cx="207" cy="414"></circle>
        <circle r="35" cx="1309" cy="1055"></circle>
        <circle r="43" cx="3" cy="343"></circle>
        <circle r="34" cx="1797" cy="983"></circle>
        <circle r="7" cx="1178" cy="55"></circle>
        <circle r="21" cx="1234" cy="897"></circle>
        <circle r="39" cx="1018" cy="684"></circle>
        <circle r="39" cx="1485" cy="901"></circle>
        <circle r="43" cx="1060" cy="787"></circle>
        <circle r="30" cx="1217" cy="350"></circle>
        <circle r="37" cx="125" cy="735"></circle>
        <circle r="17" cx="121" cy="837"></circle>
        <circle r="20" cx="1622" cy="732"></circle>
        <circle r="7" cx="1629" cy="835"></circle>
        <circle r="12" cx="726" cy="1069"></circle>
        <circle r="23" cx="183" cy="916"></circle>
        <circle r="15" cx="438" cy="918"></circle>
        <circle r="40" cx="838" cy="609"></circle>
        <circle r="8" cx="1275" cy="556"></circle>
        <circle r="32" cx="1945" cy="139"></circle>
        <circle r="11" cx="1645" cy="184"></circle>
        <circle r="22" cx="576" cy="254"></circle>
        <circle r="26" cx="1122" cy="422"></circle>
        <circle r="20" cx="1419" cy="783"></circle>
        <circle r="21" cx="1418" cy="23"></circle>
        <circle r="17" cx="210" cy="234"></circle>
        <circle r="26" cx="204" cy="667"></circle>
        <circle r="20" cx="319" cy="470"></circle>
        <circle r="13" cx="1846" cy="615"></circle>
        <circle r="11" cx="964" cy="8"></circle>
        <circle r="27" cx="1151" cy="556"></circle>
        <circle r="15" cx="831" cy="3"></circle>
        <circle r="8" cx="781" cy="874"></circle>
        <circle r="20" cx="4" cy="13"></circle>
        <circle r="32" cx="1891" cy="504"></circle>
        <circle r="30" cx="696" cy="420"></circle>
        <circle r="21" cx="1579" cy="431"></circle>
        <circle r="10" cx="98" cy="968"></circle>
        <circle r="27" cx="619" cy="598"></circle>
        <circle r="36" cx="1610" cy="11"></circle>
        <circle r="23" cx="410" cy="7"></circle>
        <circle r="10" cx="820" cy="267"></circle>
        <circle r="11" cx="94" cy="1078"></circle>
        <circle r="31" cx="1054" cy="887"></circle>
        <circle r="29" cx="1237" cy="739"></circle>
        <circle r="14" cx="1408" cy="230"></circle>
    </g>
</svg>